<?xml version="1.0" ?><svg height="50px" version="1.1" viewBox="0 0 50 50" width="50px" xmlns="http://www.w3.org/2000/svg" xmlns:xlink="http://www.w3.org/1999/xlink"><title/><desc/><g fill="none" fill-rule="evenodd" id="unreal_squircle" stroke="none" stroke-width="1"><path d="M6,0 L44,0 C47.3137085,0 50,2.6862915 50,6 L50,44 C50,47.3137085 47.3137085,50 44,50 L6,50 C2.6862915,50 0,47.3137085 0,44 L0,6 C0,2.6862915 2.6862915,0 6,0 Z" fill="#00529B" id="Background"/><g fill="#FFFFFF" id="unreal" transform="translate(3.000000, 3.000000)"><path d="M21.0032636,9.1 C18.1066109,11.5123613 18.1276011,13.5771791 18.7573082,14.6402536 C19.3870153,15.7033281 20.1846444,15.0491284 20.1846444,15.0491284 L20.1846444,28.1740095 C20.6254393,28.7259905 21.0872245,29.2779715 22.7034728,29.2779715 C23.3961506,29.2779715 24.4666527,28.7464342 25.4741841,27.744691 C25.4741841,26.7020602 25.4951743,17.6659271 25.4741841,16.5824089 C25.4531939,15.4988906 23.9838773,14.3131537 23.9838773,14.3131537 C23.9838773,14.3131537 25.8520084,14.3335975 26.523696,15.0491284 C28.8955927,12.0643423 33.4084937,10.6128368 34.6888982,10.3879556 C34.1851325,10.6128368 30.952636,15.3353407 30.952636,15.3353407 L30.952636,27.8264659 C32.2120502,29.8912837 34.6259275,26.9473851 36.62,25.6798732 C34.4789958,30.6681458 29.0425244,34.1026941 29.0425244,34.1026941 L26.0199303,31.6085578 C26.0199303,31.6085578 24.2147699,33.5507132 22.8294142,34.9 C16.7632357,34.3071315 13.4047978,31.3836767 12.7541004,30.1979398 C14.9370851,30.7499208 15.021046,29.3597464 15.021046,29.3597464 L15.021046,19.0969889 C13.5937099,14.8038035 7.50654114,23.8194929 6.52,25.4549921 C6.52,23.0017433 7.0867364,19.7103011 11.5576569,15.0900158 C16.0285774,10.4697306 21.0032636,9.1 21.0032636,9.1 Z M22,1.52186312 C10.7186312,1.52186312 1.52186312,10.6981939 1.52186312,22 C1.52186312,33.3018061 10.7186312,42.4781369 22,42.4781369 C33.2813688,42.4781369 42.4781369,33.2813688 42.4781369,22 C42.4781369,10.7186312 33.3018061,1.52186312 22,1.52186312 Z M22,0.5 C33.8944867,0.5 43.5,10.1259506 43.5,22 C43.5,33.8740494 33.8740494,43.5 22,43.5 C10.1259506,43.5 0.5,33.8740494 0.5,22 C0.5,10.1259506 10.1259506,0.5 22,0.5 Z" id="Shape"/></g></g></svg>